<svg width="24" height="24" viewBox="0 0 24 24" fill="none" xmlns="http://www.w3.org/2000/svg">
<path d="M24 19.7778C24 20.3671 23.7701 20.9324 23.361 21.3491C22.9518 21.7659 22.3968 22 21.8182 22H2.18182C1.60316 22 1.04821 21.7659 0.63904 21.3491C0.22987 20.9324 0 20.3671 0 19.7778V7.55556C0 6.96619 0.22987 6.40095 0.63904 5.98421C1.04821 5.56746 1.60316 5.33333 2.18182 5.33333H6.54545L8.72727 2H15.2727L17.4545 5.33333H21.8182C22.3968 5.33333 22.9518 5.56746 23.361 5.98421C23.7701 6.40095 24 6.96619 24 7.55556V19.7778Z" fill="#014774"/>
<path d="M11.9999 17.3571C14.339 17.3571 16.2352 15.4383 16.2352 13.0714C16.2352 10.7044 14.339 8.78564 11.9999 8.78564C9.66085 8.78564 7.76465 10.7044 7.76465 13.0714C7.76465 15.4383 9.66085 17.3571 11.9999 17.3571Z" fill="#014774" stroke="white" stroke-width="1.5" stroke-linecap="round" stroke-linejoin="round"/>
</svg>
